<?xml version="1.0" encoding="UTF-8"?>
<svg id="Layer_1" xmlns="http://www.w3.org/2000/svg" version="1.1" viewBox="0 0 470 470">
  <!-- Generator: Adobe Illustrator 30.0.0, SVG Export Plug-In . SVG Version: 2.1.1 Build 123)  -->
  <defs>
    <style>
      .st0 {
        fill: #496646;
      }

      .st1 {
        fill: #417d79;
      }

      .st2 {
        fill: #2c4c52;
      }
    </style>
  </defs>
  <g>
    <path class="st2" d="M270.8,330.4c4.8,0,7.3-2.7,7.4-7.4.1-4.4,0-8.8,0-13.2,0-3.7,2-5.7,5.7-5.7,3.8,0,7.7.2,11.5,0,12.1-.7,14.5,3.5,15.3,14.2,1,12,3.4,12.6,13.9,12.2,1.6,0,3.3,0,4.9,0,4.3-.3,7-2.8,6.6-6.9-.6-7.2-1-14.8-5.4-20.7-4.1-5.5-3.7-9.3.7-14.2,3.7-4.1,5.5-9.2,4.4-15-3.6-18-16.2-22.4-30.2-23.2-14.8-.8-29.6-.2-44.4-.2-6.2,0-8.4,2.3-8.4,8.5,0,10.4,0,20.9,0,31.3s.2,15.7,0,23.6c-.6,19,1.9,16.7,17.9,16.7ZM278.2,272c0-2.4,1.2-4.8,3.4-4.9,7.4-.4,14.8-1.6,22.1.8,4.9,1.6,7.4,6.3,6.2,11.2-1.2,5-4.2,7.7-9.7,7.4-2.5-.2-5.1,0-7.7,0s-1.1,0-1.6,0c-14.6.6-12.7-1.5-12.8-14.5Z"/>
    <path class="st2" d="M226.9,167.8c-3.6-18-16.2-22.4-30.2-23.2-14.8-.8-29.6-.2-44.4-.2-6.2,0-8.4,2.3-8.4,8.5,0,10.4,0,20.9,0,31.3s.2,15.7,0,23.6c-.6,19,1.9,16.7,17.9,16.7,4.8,0,7.3-2.7,7.4-7.4.1-4.4,0-8.8,0-13.2,0-3.7,2-5.7,5.7-5.7,3.8,0,7.7.2,11.5,0,12.1-.7,14.5,3.5,15.3,14.2,1,12,3.4,12.6,13.9,12.2,1.6,0,3.3,0,4.9,0,4.3-.3,7-2.8,6.6-6.9-.6-7.2-1-14.8-5.4-20.7-4.1-5.5-3.7-9.3.7-14.2,3.7-4.1,5.5-9.2,4.4-15ZM200.9,173.3c-1.2,5-4.2,7.7-9.7,7.4-2.5-.2-5.1,0-7.7,0s-1.1,0-1.6,0c-14.6.6-12.7-1.5-12.8-14.5,0-2.4,1.2-4.8,3.4-4.9,7.4-.4,14.8-1.6,22.1.8,4.9,1.6,7.4,6.3,6.2,11.2Z"/>
    <path class="st1" d="M220.3,313.7c-5,2.3-9.8,2.3-14.8.2-3.1-1.3-6.2-2.4-9.4-3.4-4.4-1.5-8.1-.1-11.3,2.1-.1,0-.2,0-.3.1-5,2.3-9.8,2.3-14.8.2-3.1-1.3-6.2-2.4-9.4-3.4-5.7-1.9-10.4,1-14.3,4.5-3.3,2.9-2.8,7.5-.9,11.1,2.1,4.1,5.4,1.6,7.9.2,4.1-2.4,8-1.3,11.8,0,4.1,1.4,8,3.2,12.2,4,3.4.6,6.7-.1,9.2-1.7.9-.4,1.8-1,2.5-1.4,4.1-2.4,8-1.3,11.8,0,4.1,1.4,8,3.2,12.2,4,8.2,1.4,15.4-4.6,14.6-12.1-.6-5.6-2.2-6.7-7.1-4.5Z"/>
    <path class="st1" d="M220.3,284.3c-5,2.3-9.8,2.3-14.8.2-3.1-1.3-6.2-2.4-9.4-3.4-4.4-1.5-8.1-.1-11.3,2.1-.1,0-.2,0-.3.1-5,2.3-9.8,2.3-14.8.2-3.1-1.3-6.2-2.4-9.4-3.4-5.7-1.9-10.4,1-14.3,4.5-3.3,2.9-2.8,7.5-.9,11.1,2.1,4.1,5.4,1.6,7.9.2,4.1-2.4,8-1.3,11.8,0,4.1,1.4,8,3.2,12.2,4,3.4.6,6.7-.1,9.2-1.7.9-.4,1.8-1,2.5-1.4,4.1-2.4,8-1.3,11.8,0,4.1,1.4,8,3.2,12.2,4,8.2,1.4,15.4-4.6,14.6-12.1-.6-5.6-2.2-6.7-7.1-4.5Z"/>
    <path class="st1" d="M220.3,254.8c-5,2.3-9.8,2.3-14.8.2-3.1-1.3-6.2-2.4-9.4-3.4-4.4-1.5-8.1-.1-11.3,2.1-.1,0-.2,0-.3.1-5,2.3-9.8,2.3-14.8.2-3.1-1.3-6.2-2.4-9.4-3.4-5.7-1.9-10.4,1-14.3,4.5-3.3,2.9-2.8,7.5-.9,11.1,2.1,4.1,5.4,1.6,7.9.2,4.1-2.4,8-1.3,11.8,0,4.1,1.4,8,3.2,12.2,4,3.4.6,6.7-.1,9.2-1.7.9-.4,1.8-1,2.5-1.4,4.1-2.4,8-1.3,11.8,0,4.1,1.4,8,3.2,12.2,4,8.2,1.4,15.4-4.6,14.6-12.1-.6-5.6-2.2-6.7-7.1-4.5Z"/>
    <path class="st0" d="M258.2,175.8c5.9,1,8.9.3,12.6-2.7,3.9-3.2,12.2-10.6,15.8-13.7,3.3-2.8,7.4-2.7,8-2.7.6,0,4.7-.2,8,2.7,3.6,3.1,11.9,10.5,15.8,13.7,3.6,3,6.6,3.8,12.6,2.7,3.8-.7,6.4-1.8,4.6-3.6-8.4-8.3-19.9-17.5-29.2-25-2.8-2.3-6.7-4.4-11.7-4.4s-8.8,2.1-11.7,4.4c-9.4,7.5-20.8,16.7-29.2,25-1.8,1.8.8,2.9,4.6,3.6Z"/>
    <path class="st0" d="M258.2,200c5.9,1,8.9.3,12.6-2.7,3.9-3.2,12.2-10.6,15.8-13.7,3.3-2.8,7.4-2.7,8-2.7.6,0,4.7-.2,8,2.7,3.6,3.1,11.9,10.5,15.8,13.7,3.6,3,6.6,3.8,12.6,2.7,3.8-.7,6.4-1.8,4.6-3.6-8.4-8.3-19.9-17.5-29.2-25-2.8-2.3-6.7-4.4-11.7-4.4s-8.8,2.1-11.7,4.4c-9.4,7.5-20.8,16.7-29.2,25-1.8,1.8.8,2.9,4.6,3.6Z"/>
    <path class="st0" d="M258.2,224.3c5.9,1,8.9.3,12.6-2.7,3.9-3.2,12.2-10.6,15.8-13.7,3.3-2.8,7.4-2.7,8-2.7.6,0,4.7-.2,8,2.7,3.6,3.1,11.9,10.5,15.8,13.7,3.6,3,6.6,3.8,12.6,2.7,3.8-.7,6.4-1.8,4.6-3.6-8.4-8.3-19.9-17.5-29.2-25-2.8-2.3-6.7-4.4-11.7-4.4s-8.8,2.1-11.7,4.4c-9.4,7.5-20.8,16.7-29.2,25-1.8,1.8.8,2.9,4.6,3.6Z"/>
  </g>
  <path class="st0" d="M77,312.5c.9,1.8,1.2,3.6,1,5.2-.2,1.7-.7,3.3-1.6,5.1l9.7,5c.8-1.4,1.4-2.8,1.8-4.3.5-1.5.7-3.1.8-4.7,0-1.6,0-3.3-.4-5.1-.4-1.8-1-3.6-1.9-5.5-1.3-2.9-3.1-5.3-5.2-7.2-2.1-1.9-4.5-3.4-7.1-4.3-2.6-.9-5.3-1.3-8.2-1.2s-5.6.8-8.4,2.1h-.1c-2.8,1.4-5.1,3.1-7,5.2-1.9,2.1-3.3,4.5-4.2,7-.9,2.6-1.3,5.2-1.2,8.1s.8,5.6,2.1,8.3c1,2.1,2.1,3.8,3.3,5.3,1.2,1.5,2.5,2.7,3.9,3.7,1.4,1,2.8,1.8,4.4,2.3s3.1,1,4.8,1.3l1.9-10.5c-.9-.3-1.8-.5-2.7-.9-.8-.3-1.6-.7-2.3-1.2-.7-.5-1.4-1.1-2-1.8-.6-.7-1.1-1.5-1.6-2.5-.6-1.3-.9-2.7-.9-4,0-1.3.3-2.6.8-3.8s1.3-2.3,2.3-3.4c1-1,2.2-1.9,3.6-2.5h.1c1.4-.7,2.8-1.1,4.2-1.2,1.4-.1,2.8,0,4,.4,1.3.4,2.4,1,3.4,1.8,1,.8,1.9,1.9,2.5,3.3Z"/>
  <path class="st0" d="M116.8,361.1c.2-2.8-.2-5.5-1.2-8.3s-2.5-5.4-4.6-7.8c-2.1-2.4-4.5-4.3-7.1-5.6-2.6-1.3-5.4-2.1-8.2-2.3-2.8-.2-5.6.1-8.3,1-2.7.9-5.2,2.3-7.4,4.3h0c-2.2,2-4,4.3-5.2,6.9-1.2,2.6-1.9,5.2-2.1,8s.2,5.5,1.2,8.3c.9,2.8,2.5,5.4,4.6,7.8,2.1,2.4,4.5,4.3,7.1,5.6,2.6,1.3,5.4,2.1,8.2,2.3,2.8.2,5.6-.1,8.3-1,2.7-.9,5.2-2.3,7.4-4.3h0c2.2-2,4-4.3,5.2-6.9,1.2-2.6,1.9-5.2,2.1-8ZM105.7,359.7c-.1,1.4-.6,2.7-1.2,4-.7,1.3-1.6,2.4-2.7,3.4h0c-1.1,1.1-2.4,1.8-3.7,2.3-1.4.5-2.7.7-4.1.7-1.4,0-2.7-.3-4-.9-1.3-.6-2.5-1.5-3.5-2.7-1-1.2-1.8-2.5-2.2-3.9-.4-1.4-.5-2.8-.4-4.1.2-1.4.6-2.7,1.2-4,.7-1.3,1.6-2.4,2.7-3.4h0c1.1-1.1,2.4-1.8,3.7-2.3,1.3-.5,2.7-.8,4.1-.7,1.4,0,2.7.3,4,.9,1.3.6,2.5,1.5,3.5,2.7,1,1.2,1.8,2.5,2.2,3.9.4,1.4.5,2.8.4,4.2Z"/>
  <path class="st0" d="M152.9,380.6l-12.6,19.7c-1.6,2.5-3.3,3.9-5.2,4.3-1.9.4-3.8,0-5.8-1.2s-3.1-2.8-3.5-4.8c-.4-2,.2-4.2,1.9-6.7l12.4-19.4-9.9-6.3-12.6,19.6c-1.7,2.7-2.9,5.3-3.4,7.8-.5,2.5-.5,4.9,0,7.1.6,2.2,1.6,4.3,3.2,6.2,1.6,1.9,3.6,3.7,6.1,5.3,2.5,1.6,5,2.7,7.4,3.4s4.8.8,7,.4c2.3-.4,4.4-1.4,6.5-2.9,2.1-1.6,4-3.7,5.9-6.6l12.4-19.4-9.9-6.3Z"/>
  <polygon class="st0" points="190.3 419.2 180.1 393.3 169.8 390.2 157.9 430 168.8 433.2 175.3 411.4 185.8 438.3 195.5 441.2 207.4 401.4 196.5 398.2 190.3 419.2"/>
  <path class="st0" d="M244.3,423.2c-1.3-1-2.9-1.9-4.8-2.7-1.9-.7-4-1.4-6.4-2-1.4-.4-2.6-.7-3.5-1-.9-.3-1.6-.6-2.2-.9-.5-.3-.9-.6-1.1-1-.2-.4-.3-.8-.3-1.3h0c0-.9.4-1.5,1.1-2,.7-.5,1.7-.7,3.1-.7,1.9,0,3.8.5,5.8,1.2,2,.8,3.9,1.8,5.8,3.2l6-8c-2.2-1.9-4.7-3.4-7.4-4.4-2.8-1-5.9-1.6-9.5-1.7-2.5,0-4.7.2-6.7.8-2,.6-3.7,1.5-5.2,2.6-1.4,1.1-2.5,2.5-3.3,4.1-.8,1.6-1.2,3.4-1.3,5.3h0c0,2.2.3,4,1.1,5.5.8,1.5,1.8,2.7,3.2,3.7,1.4,1,3,1.8,4.9,2.5,1.9.7,3.9,1.3,6.1,1.9,1.4.4,2.6.7,3.4,1,.9.3,1.6.6,2.1,1,.5.3.9.7,1.1,1,.2.3.3.7.3,1.2h0c0,1-.5,1.7-1.3,2.2-.8.5-2,.7-3.5.6-4.8-.1-9.3-1.9-13.3-5.4l-6.6,7.5c2.5,2.4,5.4,4.2,8.7,5.5,3.3,1.3,6.8,1.9,10.5,2,2.5,0,4.8-.2,6.9-.7,2.1-.5,3.9-1.4,5.4-2.5,1.5-1.1,2.7-2.5,3.5-4.1.9-1.6,1.3-3.5,1.4-5.6h0c0-2.1-.2-3.7-.9-5.2-.7-1.4-1.7-2.6-3-3.7Z"/>
  <polygon class="st0" points="274 431.1 272.6 424.7 292.1 420.5 290.2 411.7 270.7 415.8 269.4 409.7 290.9 405.1 288.9 395.5 256.3 402.5 265 443.1 297.9 436 295.8 426.5 274 431.1"/>
  <polygon class="st0" points="320.4 416 306.7 387.6 296.3 392.6 314.4 430 342.8 416.3 338.5 407.2 320.4 416"/>
  <rect class="st0" x="342.2" y="366.5" width="11.6" height="41.5" transform="translate(-161.6 280.2) rotate(-36.2)"/>
  <polygon class="st0" points="367.3 340.8 383.6 355.5 355.8 353.6 348.6 361.6 379.6 389.3 387.1 380.9 370.2 365.7 399 367.6 405.7 360.1 374.8 332.4 367.3 340.8"/>
  <path class="st0" d="M412.1,297.7l-8.3,17.2,7.6,3.7,3.6-7.4,4.5,2.2c.3,2.1-.2,4.3-1.4,6.8-.7,1.5-1.6,2.7-2.8,3.7-1.1,1-2.3,1.7-3.7,2.2-1.3.5-2.8.6-4.3.5-1.5-.1-3-.5-4.5-1.3h-.1c-1.4-.7-2.6-1.6-3.6-2.7-1-1.1-1.8-2.3-2.3-3.6-.5-1.3-.8-2.7-.7-4.1,0-1.4.4-2.8,1-4.2.9-1.8,2-3.3,3.3-4.4s2.8-2.1,4.6-2.9l-4.4-9.6c-2.7,1.2-5.1,2.7-7.2,4.6-2.1,1.9-4,4.6-5.6,7.9-1.4,2.9-2.2,5.8-2.4,8.8-.2,3,.1,5.7,1.1,8.4.9,2.6,2.3,5,4.2,7.2,1.9,2.2,4.2,3.9,6.9,5.2h.1c2.8,1.4,5.7,2.2,8.6,2.3,2.9.1,5.6-.3,8.2-1.3,2.6-1,5-2.5,7.1-4.5,2.1-2,3.9-4.5,5.3-7.4,1.7-3.4,2.6-6.7,2.8-10,.2-3.2,0-6.3-.7-9l-16.8-8.2Z"/>
  <path class="st1" d="M47.8,242.7c0,.5,0,1.1-.3,1.8-.2.7-.5,1.5-.7,2.3-.3.8-.5,1.7-.7,2.6-.2.9-.3,1.8-.3,2.7,0,2,.8,3.6,2.3,4.6,1.5,1.1,3.7,1.9,6.7,2.5l1.3-5.5c-.9-.4-1.6-.7-2.1-1.1-.5-.4-.7-1-.7-1.8,0-.5,0-1.1.3-1.8.2-.7.5-1.5.7-2.3s.5-1.7.7-2.6c.2-.9.3-1.8.3-2.7,0-2-.8-3.6-2.3-4.6-1.5-1.1-3.7-1.9-6.7-2.5l-1.3,5.5c.9.4,1.6.7,2.1,1.1.5.4.7,1,.7,1.8Z"/>
  <g>
    <path class="st2" d="M75.3,188.6l-12-3.9,1.5-4.7h0c0-.1,14.6-4.1,14.6-4.1l4.1-12.6-16.8,4.9c-.2-2.8-1.1-5.3-2.6-7.4-1.5-2.1-3.8-3.7-6.8-4.7h-.1c-3.9-1.3-7.3-1.1-10.3.5-1.8.9-3.4,2.2-4.8,4.1-1.4,1.9-2.7,4.3-3.7,7.4l-6.1,18.7,39.5,12.9,3.6-10.9ZM57.1,174.7l-2.4,7.2-9.5-3.1,2.3-7.2c.6-1.8,1.5-3.2,2.6-4,1.1-.8,2.5-.9,4-.4h.1c1.4.5,2.4,1.4,2.9,2.7.5,1.3.5,2.9-.2,4.8Z"/>
    <path class="st2" d="M61.9,141.7c1.5,2.4,3.5,4.4,6,6.1h.1c2.5,1.7,5.1,2.8,7.9,3.4,2.8.5,5.5.5,8.3,0,2.7-.6,5.3-1.6,7.8-3.3,2.5-1.6,4.6-3.8,6.4-6.4,1.8-2.7,3-5.4,3.6-8.3s.7-5.7.2-8.5c-.5-2.8-1.5-5.4-3.1-7.8-1.5-2.4-3.5-4.4-6-6.1h0c-2.5-1.7-5.1-2.8-7.9-3.4-2.8-.5-5.5-.5-8.3,0-2.7.5-5.3,1.6-7.8,3.3-2.5,1.6-4.6,3.8-6.4,6.4-1.8,2.6-3,5.4-3.6,8.3-.6,2.9-.7,5.7-.2,8.5.5,2.8,1.5,5.4,3.1,7.8ZM69.5,127.2c.2-1.4.8-2.8,1.7-4.1.9-1.3,2-2.3,3.2-3.1,1.2-.7,2.6-1.2,3.9-1.4,1.4-.2,2.8-.2,4.2.2,1.4.3,2.7.9,4,1.8h0c1.2.9,2.3,1.9,3.1,3.1.8,1.2,1.4,2.4,1.7,3.8.3,1.3.4,2.7.1,4.1-.2,1.4-.8,2.8-1.7,4.1-.9,1.3-2,2.3-3.2,3.1-1.2.7-2.5,1.2-3.9,1.4-1.4.2-2.8.1-4.2-.2-1.4-.3-2.7-.9-4-1.8h-.1c-1.2-.9-2.3-1.9-3.1-3.1-.8-1.2-1.4-2.4-1.7-3.8-.3-1.3-.4-2.7-.1-4.1Z"/>
    <path class="st2" d="M100.8,102.4h0c1.9,2.4,4.1,4.2,6.6,5.5,2.5,1.3,5.2,2.1,7.9,2.4,2.8.3,5.5,0,8.4-.9,2.8-.8,5.5-2.3,8-4.3,2.5-2,4.4-4.3,5.9-6.9,1.4-2.6,2.3-5.3,2.6-8.1.3-2.8.1-5.6-.7-8.3-.8-2.8-2.1-5.3-4-7.6h0c-1.9-2.4-4.1-4.2-6.6-5.5-2.5-1.3-5.2-2.1-7.9-2.4-2.8-.3-5.5,0-8.4.9-2.8.8-5.5,2.3-8,4.3-2.5,2-4.4,4.3-5.9,6.9-1.4,2.6-2.3,5.3-2.6,8.1-.3,2.8-.1,5.6.7,8.3.8,2.8,2.1,5.3,4,7.6ZM108.3,83.1c.6-1.3,1.6-2.4,2.8-3.4s2.6-1.7,4-2c1.4-.3,2.8-.4,4.2-.2,1.4.2,2.7.7,4,1.4,1.2.7,2.3,1.7,3.3,2.8h0c.9,1.3,1.6,2.5,2.1,3.9.4,1.4.6,2.7.6,4.1,0,1.4-.4,2.7-1.1,4-.6,1.3-1.6,2.4-2.8,3.4-1.2,1-2.5,1.7-4,2-1.4.3-2.8.4-4.2.2-1.4-.2-2.7-.7-3.9-1.4-1.2-.7-2.3-1.7-3.3-2.8h0c-.9-1.3-1.6-2.5-2.1-3.9-.5-1.4-.6-2.7-.6-4.1,0-1.4.5-2.7,1.1-4Z"/>
    <polygon class="st2" points="151.8 54.6 164.4 83.4 174.9 78.8 162.3 50 173.8 45 169.7 35.8 136.4 50.3 140.4 59.6 151.8 54.6"/>
    <path class="st2" d="M246.2,52.2c.8-1.5,1.6-3.1,2.5-4.7l-7.7-3.5c-.6,1.2-1.2,2.4-1.8,3.5-.6,1.1-1.2,2.2-1.9,3.2l-4.8-4.3c2.4-1.2,4.3-2.8,5.7-4.6,1.4-1.8,2.1-4,2-6.5h0c0-1.6-.4-3-1-4.3-.6-1.3-1.5-2.4-2.6-3.3-1.1-.9-2.4-1.6-4-2.1-1.5-.5-3.3-.7-5.2-.6-2,0-3.8.5-5.4,1.1-1.6.7-2.9,1.6-4,2.6-1.1,1.1-1.9,2.3-2.4,3.7-.5,1.4-.8,2.8-.7,4.3h0c0,1.5.3,2.8.8,4,.5,1.3,1.2,2.6,2.2,3.9-5.5,2.8-8.2,6.7-7.9,12h0c0,2,.5,3.7,1.3,5.1.8,1.5,1.9,2.7,3.3,3.6,1.4,1,3,1.7,4.8,2.2,1.8.5,3.8.6,5.9.6,2.4,0,4.6-.6,6.6-1.4s3.8-1.9,5.6-3.3l4.4,4.2,7.5-5.9-5.8-5.3c.9-1.4,1.8-2.8,2.6-4.3ZM225.4,34c.6-.7,1.4-1.1,2.4-1.1.9,0,1.7.2,2.3.8.6.6.9,1.4,1,2.4h0c0,2.2-1.3,4-4.2,5.4-.7-.9-1.3-1.7-1.7-2.4-.4-.7-.6-1.5-.6-2.3h0c0-1.2.2-2.1.8-2.8ZM228.9,59.1c-.8.3-1.6.5-2.5.6-1.4,0-2.6-.3-3.5-1-.9-.7-1.4-1.7-1.5-2.9h0c0-.9.2-1.8.6-2.5.4-.8,1.2-1.5,2.2-2.2l7.1,6.7c-.8.6-1.6,1.1-2.4,1.4Z"/>
    <path class="st2" d="M290.8,62.7l4.6,1.6h.1s3.7,14.7,3.7,14.7l12.5,4.4-4.5-16.9c2.8-.2,5.3-1,7.5-2.5,2.2-1.5,3.8-3.7,4.8-6.7h0c1.4-4,1.3-7.4-.3-10.5-.8-1.8-2.2-3.4-4-4.9-1.8-1.5-4.3-2.7-7.3-3.8l-18.5-6.5-13.8,39.2,10.9,3.8,4.2-11.9ZM297.1,44.8l7.1,2.5c1.8.6,3.1,1.5,3.9,2.7.8,1.1.9,2.5.3,4h0c-.5,1.5-1.4,2.5-2.7,3-1.3.5-2.9.4-4.8-.3l-7.2-2.5,3.3-9.4Z"/>
    <rect class="st2" x="312.4" y="67.1" width="41.5" height="11.6" transform="translate(99.9 321.7) rotate(-59.2)"/>
    <polygon class="st2" points="354 115.2 394.7 95.8 385.3 87.2 360.6 100.2 371.5 74.5 362 65.8 346.1 108 354 115.2"/>
    <polygon class="st2" points="387.6 159.3 395.8 154 383.8 135.2 389.3 131.7 400.1 148.5 407.7 143.6 397 126.8 402.3 123.4 414.2 141.9 422.4 136.6 404.4 108.6 369.4 131 387.6 159.3"/>
    <path class="st2" d="M436.4,171.7l-6.1-18.7-39.5,12.9,3.6,10.9,12-3.9,1.5,4.7h0c0,.1-9.4,12-9.4,12l4.1,12.6,10.7-13.9c1.9,2.1,4,3.6,6.5,4.4,2.5.8,5.2.7,8.3-.3h.1c3.9-1.3,6.6-3.5,8-6.5.9-1.8,1.4-3.8,1.5-6.2,0-2.4-.4-5-1.4-8.1ZM427,179c-.4,1.3-1.4,2.2-3,2.7h-.1c-1.4.5-2.7.4-3.9-.4-1.2-.7-2.1-2-2.7-3.9l-2.4-7.2,9.5-3.1,2.3,7.2c.6,1.8.7,3.4.3,4.7Z"/>
  </g>
  <path class="st1" d="M426.7,246.8c.3-.8.6-1.7.9-2.6.3-.9.4-1.8.4-2.7,0-2-.6-3.6-2-4.8-1.4-1.2-3.6-2.1-6.6-2.9l-1.7,5.4c.9.4,1.6.8,2,1.2.4.4.7,1,.6,1.8,0,.5-.2,1.1-.4,1.8-.3.7-.6,1.5-.9,2.3-.3.8-.6,1.6-.9,2.5-.3.9-.4,1.8-.4,2.7,0,2,.6,3.6,2,4.8,1.4,1.2,3.6,2.1,6.6,2.9l1.7-5.4c-.9-.4-1.6-.8-2-1.3-.4-.4-.6-1-.6-1.9,0-.5.2-1.1.4-1.7.3-.7.6-1.4.9-2.2Z"/>
</svg>