<?xml version="1.0" encoding="UTF-8"?>
<svg id="Layer_1" xmlns="http://www.w3.org/2000/svg" version="1.1" viewBox="0 0 470 470">
  <!-- Generator: Adobe Illustrator 30.0.0, SVG Export Plug-In . SVG Version: 2.1.1 Build 123)  -->
  <defs>
    <style>
      .st0 {
        fill: #0f0f0f;
      }
    </style>
  </defs>
  <path class="st0" d="M441.7,350.6c8.3-9.2,12.5-20.8,9.8-33.9-8.2-40.5-36.6-50.5-68-52.2-33.3-1.8-66.8-.5-100.2-.4-13.9,0-18.9,5.1-18.9,19.3,0,23.5,0,47,0,70.5s.5,35.5,0,53.2c-1.4,42.8,4.3,37.6,40.4,37.7,10.8,0,16.4-6,16.6-16.7.2-9.9,0-19.8,0-29.7,0-8.4,4.4-12.8,12.8-12.9,8.7-.1,17.4.4,26-.1,27.2-1.6,32.6,7.8,34.6,31.9,2.2,27.1,7.6,28.5,31.4,27.6,3.7-.1,7.4.2,11.1,0,9.6-.7,15.8-6.4,15-15.6-1.3-16.1-2.2-33.4-12.1-46.6-9.3-12.4-8.4-21,1.6-32ZM392.8,329.1c-2.6,11.3-9.5,17.5-21.8,16.7-5.7-.3-11.5,0-17.3,0s-2.5,0-3.7,0c-32.9,1.4-28.7-3.4-28.8-32.7,0-5.5,2.8-10.7,7.8-11,16.6-.8,33.5-3.7,49.7,1.8,10.9,3.6,16.6,14.3,14.1,25.3Z"/>
  <path class="st0" d="M58.7,206.2c10.8,0,16.4-6,16.6-16.7.2-9.9,0-19.8,0-29.7,0-8.4,4.4-12.8,12.8-12.9,8.7-.1,17.4.4,26-.1,27.2-1.6,32.6,7.8,34.6,31.9,2.2,27.1,7.6,28.5,31.4,27.6,3.7-.1,7.4.2,11.1,0,9.6-.7,15.8-6.4,15-15.6-1.3-16.1-2.2-33.4-12.1-46.6-9.3-12.4-8.4-21,1.6-32,8.3-9.2,12.5-20.8,9.8-33.9-8.2-40.5-36.6-50.5-68-52.2-33.3-1.8-66.8-.5-100.2-.4-13.9,0-18.9,5.1-18.9,19.3,0,23.5,0,47,0,70.5s.5,35.5,0,53.2c-1.4,42.8,4.3,37.6,40.4,37.7ZM75.4,74.5c0-5.5,2.8-10.7,7.8-11,16.6-.8,33.5-3.7,49.7,1.8,10.9,3.6,16.6,14.3,14.1,25.3-2.6,11.3-9.5,17.5-21.8,16.7-5.7-.3-11.5,0-17.3,0s-2.5,0-3.7,0c-32.9,1.4-28.7-3.4-28.8-32.7Z"/>
  <g>
    <path class="st0" d="M190.7,407.1c-11.2,5.2-22,5.2-33.3.5-6.9-2.9-14.1-5.4-21.2-7.8-9.8-3.3-18.2-.3-25.6,4.8-.3.1-.5.2-.8.3-11.2,5.2-22,5.2-33.3.5-6.9-2.9-14.1-5.4-21.2-7.8-12.9-4.3-23.4,2.2-32.2,10.1-7.4,6.6-6.2,16.9-2.1,25,4.7,9.2,12.3,3.6,17.7.4,9.2-5.4,18-2.9,26.7.2,9.2,3.2,18,7.3,27.6,9,7.7,1.4,15-.2,20.8-3.8,2-1,4-2.2,5.7-3.2,9.2-5.4,18-2.9,26.7.2,9.2,3.2,18,7.3,27.6,9,18.5,3.3,34.7-10.3,32.8-27.3-1.4-12.6-5-15.2-16-10.1Z"/>
    <path class="st0" d="M190.7,340.8c-11.2,5.2-22,5.2-33.3.5-6.9-2.9-14.1-5.4-21.2-7.8-9.8-3.3-18.2-.3-25.6,4.8-.3.1-.5.2-.8.3-11.2,5.2-22,5.2-33.3.5-6.9-2.9-14.1-5.4-21.2-7.8-12.9-4.3-23.4,2.2-32.2,10.1-7.4,6.6-6.2,16.9-2.1,25,4.7,9.2,12.3,3.6,17.7.4,9.2-5.4,18-2.9,26.7.2,9.2,3.2,18,7.3,27.6,9,7.7,1.4,15-.2,20.8-3.8,2-1,4-2.2,5.7-3.2,9.2-5.4,18-2.9,26.7.2,9.2,3.2,18,7.3,27.6,9,18.5,3.3,34.7-10.3,32.8-27.3-1.4-12.6-5-15.2-16-10.1Z"/>
    <path class="st0" d="M190.7,274.4c-11.2,5.2-22,5.2-33.3.5-6.9-2.9-14.1-5.4-21.2-7.8-9.8-3.3-18.2-.3-25.6,4.8-.3.1-.5.2-.8.3-11.2,5.2-22,5.2-33.3.5-6.9-2.9-14.1-5.4-21.2-7.8-12.9-4.3-23.4,2.2-32.2,10.1-7.4,6.6-6.2,16.9-2.1,25,4.7,9.2,12.3,3.6,17.7.4,9.2-5.4,18-2.9,26.7.2,9.2,3.2,18,7.3,27.6,9,7.7,1.4,15-.2,20.8-3.8,2-1,4-2.2,5.7-3.2,9.2-5.4,18-2.9,26.7.2,9.2,3.2,18,7.3,27.6,9,18.5,3.3,34.7-10.3,32.8-27.3-1.4-12.6-5-15.2-16-10.1Z"/>
  </g>
  <g>
    <path class="st0" d="M272.7,102.6c15.4,4.7,41.6-18.6,46.2-22.8,12.1-11.1,19.4-15.7,25-19.4,8.6-5.5,19.8-5.5,28.4,0,5.6,3.6,12.9,8.3,25,19.4,4.6,4.3,26.9,27.2,46.2,22.8,6.7-1.5,8.3-10.4,3.5-15.3-33.1-33.2-78.2-62.3-88.9-62.3s-55.9,29.1-88.9,62.3c-4.8,4.8-3.1,13.3,3.5,15.3Z"/>
    <path class="st0" d="M272.7,154.3c15.4,4.7,41.6-18.6,46.2-22.8,12.1-11.1,19.4-15.7,25-19.4,8.6-5.5,19.8-5.5,28.4,0,5.6,3.6,12.9,8.3,25,19.4,4.6,4.3,26.9,27.2,46.2,22.8,6.7-1.5,8.3-10.4,3.5-15.3-33.1-33.2-78.2-62.3-88.9-62.3s-55.9,29.1-88.9,62.3c-4.8,4.8-3.1,13.3,3.5,15.3Z"/>
    <path class="st0" d="M272.7,205.9c15.4,4.7,41.6-18.6,46.2-22.8,12.1-11.1,19.4-15.7,25-19.4,8.6-5.5,19.8-5.5,28.4,0,5.6,3.6,12.9,8.3,25,19.4,4.6,4.3,26.9,27.2,46.2,22.8,6.7-1.5,8.3-10.4,3.5-15.3-33.1-33.2-78.2-62.3-88.9-62.3s-55.9,29.1-88.9,62.3c-4.8,4.8-3.1,13.3,3.5,15.3Z"/>
  </g>
</svg>