<?xml version="1.0" encoding="UTF-8"?>
<svg id="Layer_1" xmlns="http://www.w3.org/2000/svg" version="1.1" viewBox="0 0 700 470">
  <!-- Generator: Adobe Illustrator 30.0.0, SVG Export Plug-In . SVG Version: 2.1.1 Build 123)  -->
  <defs>
    <style>
      .st0 {
        fill: #ebe2cd;
      }
    </style>
  </defs>
  <g>
    <path class="st0" d="M89.7,334.7c-2.2-10.7-9.7-13.4-18-13.8-8.8-.5-17.7-.1-26.5,0-3.7,0-5,1.4-5,5.1,0,6.2,0,12.5,0,18.7s.1,9.4,0,14.1c-.4,11.3,1.1,10,10.7,10,2.9,0,4.3-1.6,4.4-4.4,0-2.6,0-5.2,0-7.9,0-2.2,1.2-3.4,3.4-3.4,2.3,0,4.6.1,6.9,0,7.2-.4,8.6,2.1,9.2,8.5.6,7.2,2,7.6,8.3,7.3,1,0,2,0,2.9,0,2.6-.2,4.2-1.7,4-4.1-.4-4.3-.6-8.8-3.2-12.3-2.5-3.3-2.2-5.6.4-8.5,2.2-2.4,3.3-5.5,2.6-9ZM74.1,338c-.7,3-2.5,4.6-5.8,4.4-1.5,0-3,0-4.6,0s-.7,0-1,0c-8.7.4-7.6-.9-7.6-8.7,0-1.5.7-2.8,2.1-2.9,4.4-.2,8.9-1,13.2.5,2.9,1,4.4,3.8,3.7,6.7Z"/>
    <path class="st0" d="M140.1,321.9c-7.6-2.6-15.4-2.8-23.2-1.3-9.9,1.9-16.5,7.4-18.9,17.4-2.3,9.8-.5,18.8,7.4,25.5,5.8,4.9,13.1,6.4,20.8,6.1,3,0,6.1,0,9.1-.6,6.2-1.4,11.8-3.9,15.6-9.3,3.6-5,4.5-10.7,4.4-16.7-.2-9.7-5.9-17.8-15.2-21ZM140.1,344.9c0,8.6-2.2,12.3-9,14.1-10.9,2.9-18.6-2.7-18.8-13.6,0-4.7.7-8.8,4.2-12.2,3.5-3.4,11.5-4.8,16.5-2.5,5,2.4,7.2,6.7,7.1,12.2,0,.7,0,1.3,0,2Z"/>
    <path class="st0" d="M206.5,367.4c-7.6,2.6-15.4,2.8-23.2,1.3-9.9-1.9-16.5-7.4-18.9-17.4-2.3-9.8-.5-18.8,7.4-25.5,5.8-4.9,13.1-6.4,20.8-6.1,3,0,6.1,0,9.1.6,6.2,1.4,11.8,3.9,15.6,9.3,3.6,5,4.5,10.7,4.4,16.7-.2,9.7-5.9,17.8-15.2,21ZM206.4,344.4c0-8.6-2.2-12.3-9-14.1-10.9-2.9-18.6,2.7-18.8,13.6,0,4.7.7,8.8,4.2,12.2,3.5,3.4,11.5,4.8,16.5,2.5,5-2.4,7.2-6.7,7.1-12.2,0-.7,0-1.3,0-2Z"/>
    <path class="st0" d="M272.5,320.6c-13.9,0-27.8,0-41.8,0-3,0-4.4,1.6-4.4,4.7,0,3.4,1.3,5,4.4,5.1,3,0,5.9,0,8.9,0,3.6,0,4.4.8,4.5,4.4,0,4.7,0,9.4,0,14.1s0,6.8,0,10.2q0,9.5,9.6,9.5c4.3,0,5.5-1.2,5.5-5.6,0-9.4,0-18.9,0-28.3,0-3.1,1.2-4.4,4.3-4.3,3,.1,5.9,0,8.9,0,3.2,0,4.6-1.6,4.7-4.9,0-3.4-1.3-4.9-4.5-5Z"/>
    <path class="st0" d="M350.4,348.8c-.5.5-1.3,2.4-3,4.4-1.2-.6-6.5-6.9-4.9-7.6,11.9-5.2,6.5-19.7.9-22.3-6.5-3-11.7-4.4-18.7-2.9-10.4,2.2-13.5,7.1-12.8,16.6.3,3.3-.5,5.1-2.6,7.4-6,6.4-4.7,16.2,2.8,20.8,8.8,5.4,18.6,4.7,28.4,4.1,3-.2,6.1-2.1,9.1-.2,1.7,1.1,3.1,3.4,5.3,2.2,1.8-.9,3.2-2.6,4.6-4.1,1.1-1.1,1.4-2.6.4-3.9-2-2.5-.9-7.9.6-10.5,1.4-2.4-8.5-5.8-10.1-4ZM332.6,330.1c4.1,0,5.5,1,5.5,3.7,0,2.6-1.9,4.1-5.1,4.2-3.2,0-5.9-1.8-6.1-4.2-.1-2.3,2-3.7,5.7-3.7ZM324.9,358.2c-2-.6-3.2-2.4-3.2-4.5,0-2.4,2-3.4,3.8-3.7,3.2-.7,8.4,6.7,13.8,8.9-3.6,1.2-8.3,1.3-14.4-.7Z"/>
    <path class="st0" d="M442.1,334.7c-2.2-10.7-9.7-13.4-18-13.8-8.8-.5-17.7-.1-26.5,0-3.7,0-5,1.4-5,5.1,0,6.2,0,12.5,0,18.7s.1,9.4,0,14.1c-.4,11.3,1.1,10,10.7,10,2.9,0,4.3-1.6,4.4-4.4,0-2.6,0-5.2,0-7.9,0-2.2,1.2-3.4,3.4-3.4,2.3,0,4.6.1,6.9,0,7.2-.4,8.6,2.1,9.2,8.5.6,7.2,2,7.6,8.3,7.3,1,0,2,0,2.9,0,2.6-.2,4.2-1.7,4-4.1-.4-4.3-.6-8.8-3.2-12.3-2.5-3.3-2.2-5.6.4-8.5,2.2-2.4,3.3-5.5,2.6-9ZM426.5,338c-.7,3-2.5,4.6-5.8,4.4-1.5,0-3,0-4.6,0s-.7,0-1,0c-8.7.4-7.6-.9-7.6-8.7,0-1.5.7-2.8,2.1-2.9,4.4-.2,8.9-1,13.2.5,2.9,1,4.4,3.8,3.7,6.7Z"/>
    <path class="st0" d="M477.5,330.4c3.1-.2,4.2-2,4.1-5.4-.1-2.9-1.6-4.4-4.5-4.4-7.3,0-14.7,0-22,0-2.9,0-4.3,1.5-4.4,4.4-.1,3.4,1,5.3,4.1,5.4,3.1.2,3.9,1.7,3.8,4.4,0,6.4,0,12.7,0,19.1,0,2.6-.9,4-3.7,4.2-3.4.3-4.4,1.8-4.2,5.9.1,3.2,1.6,4.6,4.9,4.6,3.5,0,7,0,10.5,0s7.2,0,10.8,0c3.1,0,4.5-1.5,4.6-4.6.2-3.9-.8-5.7-3.9-5.8-3.2-.2-4-1.8-4-4.6,0-6.2,0-12.5,0-18.7,0-2.7.8-4.3,3.8-4.4Z"/>
    <path class="st0" d="M543.4,320.6c-1.9,0-3.7,0-5.6,0-5.7,0-6.7.7-8.9,6.1-3.1,7.6-6.3,15.1-9.5,22.6-.4,1-.8,2.2-2.5,2.1-1.5,0-1.6-1.3-2-2.2-2.7-6.2-5.2-12.5-7.9-18.7-4.9-11.2-2.1-9.8-15.6-9.9-.2,0-.4,0-.7,0-3,.2-3.8,1.5-2.5,4.3,6.4,13.3,12.8,26.6,19.2,39.9,1.3,2.6,3.3,3.9,6.3,3.7,1.2,0,2.4,0,4.4,0,4.3.9,7.8-.6,10.1-5.6,5.6-12.2,11.6-24.3,17.4-36.4.2-.5.4-1,.6-1.5,1-2.8,0-4.1-2.8-4.2Z"/>
    <path class="st0" d="M595.2,358.2c-7,0-14,0-21.1,0-3.2,0-4-1.1-4.1-4.5,0-2.9,1.2-4.2,4.1-4.1,5.5,0,11,0,16.5,0,3.8,0,5.2-1.5,5.1-5.4,0-3.7-1.3-5.1-5-5.1-5.5,0-11,0-16.5,0-3.1,0-4.2-1.4-4.2-4.4,0-3.1,1.3-4.3,4.3-4.2,6.7,0,13.4,0,20.1,0,3.8,0,5.2-1.4,5.3-5,0-3.6-1.4-4.9-5.3-4.9-11.4,0-22.8,0-34.2,0-4,0-5.3,1.3-5.3,5.2,0,6.3,0,12.5,0,18.8s0,12.5,0,18.8c0,4,1.3,5.3,5.2,5.3,11.7,0,23.5,0,35.2,0,3.7,0,5-1.4,5-5.2,0-4-1.3-5.3-5.2-5.3Z"/>
    <path class="st0" d="M657.2,343.7c2.2-2.4,3.3-5.5,2.6-9-2.2-10.7-9.7-13.4-18-13.8-8.8-.5-17.7-.1-26.5,0-3.7,0-5,1.4-5,5.1,0,6.2,0,12.5,0,18.7s.1,9.4,0,14.1c-.4,11.3,1.1,10,10.7,10,2.9,0,4.3-1.6,4.4-4.4,0-2.6,0-5.2,0-7.9,0-2.2,1.2-3.4,3.4-3.4,2.3,0,4.6.1,6.9,0,7.2-.4,8.6,2.1,9.2,8.5.6,7.2,2,7.6,8.3,7.3,1,0,2,0,2.9,0,2.6-.2,4.2-1.7,4-4.1-.4-4.3-.6-8.8-3.2-12.3-2.5-3.3-2.2-5.6.4-8.5ZM644.3,338c-.7,3-2.5,4.6-5.8,4.4-1.5,0-3,0-4.6,0s-.7,0-1,0c-8.7.4-7.6-.9-7.6-8.7,0-1.5.7-2.8,2.1-2.9,4.4-.2,8.9-1,13.2.5,2.9,1,4.4,3.8,3.7,6.7Z"/>
  </g>
  <path class="st0" d="M454.5,207.7c4.2-4.6,6.3-10.5,5-17.1-4.1-20.5-18.5-25.5-34.4-26.4-16.8-.9-33.8-.2-50.6-.2-7,0-9.5,2.6-9.6,9.7,0,11.9,0,23.8,0,35.6s.2,17.9,0,26.9c-.7,21.6,2.2,19,20.4,19.1,5.5,0,8.3-3.1,8.4-8.5.1-5,0-10,0-15,0-4.3,2.2-6.5,6.5-6.5,4.4,0,8.8.2,13.1,0,13.8-.8,16.5,4,17.5,16.1,1.1,13.7,3.8,14.4,15.9,14,1.9,0,3.8.1,5.6,0,4.9-.4,8-3.2,7.6-7.9-.7-8.1-1.1-16.9-6.1-23.5-4.7-6.3-4.2-10.6.8-16.2ZM429.8,196.9c-1.3,5.7-4.8,8.8-11,8.4-2.9-.2-5.8,0-8.7,0s-1.2,0-1.9,0c-16.6.7-14.5-1.7-14.6-16.5,0-2.8,1.4-5.4,3.9-5.5,8.4-.4,16.9-1.8,25.1.9,5.5,1.8,8.4,7.2,7.1,12.8Z"/>
  <path class="st0" d="M260.9,134.8c5.5,0,8.3-3.1,8.4-8.5.1-5,0-10,0-15,0-4.3,2.2-6.5,6.5-6.5,4.4,0,8.8.2,13.1,0,13.8-.8,16.5,4,17.5,16.1,1.1,13.7,3.8,14.4,15.9,14,1.9,0,3.8.1,5.6,0,4.9-.4,8-3.2,7.6-7.9-.7-8.1-1.1-16.9-6.1-23.5-4.7-6.3-4.2-10.6.8-16.2,4.2-4.6,6.3-10.5,5-17.1-4.1-20.5-18.5-25.5-34.4-26.4-16.8-.9-33.8-.2-50.6-.2-7,0-9.5,2.6-9.6,9.7,0,11.9,0,23.8,0,35.6s.2,17.9,0,26.9c-.7,21.6,2.2,19,20.4,19.1ZM269.3,68.2c0-2.8,1.4-5.4,3.9-5.5,8.4-.4,16.9-1.8,25.1.9,5.5,1.8,8.4,7.2,7.1,12.8-1.3,5.7-4.8,8.8-11,8.4-2.9-.2-5.8,0-8.7,0s-1.2,0-1.9,0c-16.6.7-14.5-1.7-14.6-16.5Z"/>
  <g>
    <path class="st0" d="M327.6,236.3c-5.7,2.6-11.1,2.6-16.8.2-3.5-1.5-7.1-2.7-10.7-3.9-5-1.7-9.2-.2-12.9,2.4-.1,0-.2,0-.4.2-5.7,2.6-11.1,2.6-16.8.2-3.5-1.5-7.1-2.7-10.7-3.9-6.5-2.2-11.8,1.1-16.3,5.1-3.8,3.4-3.1,8.6-1,12.7,2.4,4.6,6.2,1.8,9,.2,4.7-2.7,9.1-1.5,13.5,0,4.6,1.6,9.1,3.7,14,4.6,3.9.7,7.6-.1,10.5-1.9,1-.5,2-1.1,2.9-1.6,4.7-2.7,9.1-1.5,13.5,0,4.6,1.6,9.1,3.7,14,4.6,9.3,1.7,17.5-5.2,16.6-13.8-.7-6.4-2.5-7.7-8.1-5.1Z"/>
    <path class="st0" d="M327.6,202.8c-5.7,2.6-11.1,2.6-16.8.2-3.5-1.5-7.1-2.7-10.7-3.9-5-1.7-9.2-.2-12.9,2.4-.1,0-.2,0-.4.2-5.7,2.6-11.1,2.6-16.8.2-3.5-1.5-7.1-2.7-10.7-3.9-6.5-2.2-11.8,1.1-16.3,5.1-3.8,3.4-3.1,8.6-1,12.7,2.4,4.6,6.2,1.8,9,.2,4.7-2.7,9.1-1.5,13.5,0,4.6,1.6,9.1,3.7,14,4.6,3.9.7,7.6-.1,10.5-1.9,1-.5,2-1.1,2.9-1.6,4.7-2.7,9.1-1.5,13.5,0,4.6,1.6,9.1,3.7,14,4.6,9.3,1.7,17.5-5.2,16.6-13.8-.7-6.4-2.5-7.7-8.1-5.1Z"/>
    <path class="st0" d="M327.6,169.2c-5.7,2.6-11.1,2.6-16.8.2-3.5-1.5-7.1-2.7-10.7-3.9-5-1.7-9.2-.2-12.9,2.4-.1,0-.2,0-.4.2-5.7,2.6-11.1,2.6-16.8.2-3.5-1.5-7.1-2.7-10.7-3.9-6.5-2.2-11.8,1.1-16.3,5.1-3.8,3.4-3.1,8.6-1,12.7,2.4,4.6,6.2,1.8,9,.2,4.7-2.7,9.1-1.5,13.5,0,4.6,1.6,9.1,3.7,14,4.6,3.9.7,7.6-.1,10.5-1.9,1-.5,2-1.1,2.9-1.6,4.7-2.7,9.1-1.5,13.5,0,4.6,1.6,9.1,3.7,14,4.6,9.3,1.7,17.5-5.2,16.6-13.8-.7-6.4-2.5-7.7-8.1-5.1Z"/>
  </g>
  <g>
    <path class="st0" d="M369.1,82.4c7.8,2.4,21-9.4,23.4-11.5,6.1-5.6,9.8-8,12.6-9.8,4.4-2.8,10-2.8,14.4,0,2.8,1.8,6.5,4.2,12.6,9.8,2.3,2.2,13.6,13.8,23.4,11.5,3.4-.8,4.2-5.3,1.8-7.7-16.7-16.8-39.5-31.5-45-31.5s-28.2,14.7-45,31.5c-2.4,2.4-1.6,6.7,1.8,7.7Z"/>
    <path class="st0" d="M369.1,108.5c7.8,2.4,21-9.4,23.4-11.5,6.1-5.6,9.8-8,12.6-9.8,4.4-2.8,10-2.8,14.4,0,2.8,1.8,6.5,4.2,12.6,9.8,2.3,2.2,13.6,13.8,23.4,11.5,3.4-.8,4.2-5.3,1.8-7.7-16.7-16.8-39.5-31.5-45-31.5s-28.2,14.7-45,31.5c-2.4,2.4-1.6,6.7,1.8,7.7Z"/>
    <path class="st0" d="M369.1,134.6c7.8,2.4,21-9.4,23.4-11.5,6.1-5.6,9.8-8,12.6-9.8,4.4-2.8,10-2.8,14.4,0,2.8,1.8,6.5,4.2,12.6,9.8,2.3,2.2,13.6,13.8,23.4,11.5,3.4-.8,4.2-5.3,1.8-7.7-16.7-16.8-39.5-31.5-45-31.5s-28.2,14.7-45,31.5c-2.4,2.4-1.6,6.7,1.8,7.7Z"/>
  </g>
  <g>
    <path class="st0" d="M208,426.8c-2,0-3.9-.4-5.7-1.1-1.8-.7-3.3-1.7-4.6-3-1.3-1.3-2.3-2.8-3.1-4.6-.8-1.8-1.1-3.7-1.1-5.8h0c0-2.1.4-4,1.1-5.8.7-1.8,1.8-3.3,3.1-4.7,1.3-1.3,2.9-2.4,4.7-3.1,1.8-.7,3.8-1.1,5.9-1.1s2.8.1,3.9.4c1.2.3,2.3.7,3.2,1.2,1,.5,1.9,1.1,2.6,1.9.8.7,1.5,1.5,2.1,2.4l-5.9,4.5c-.8-1-1.7-1.8-2.6-2.4s-2.1-.9-3.5-.9-1.9.2-2.7.6c-.8.4-1.5.9-2.1,1.6s-1.1,1.5-1.4,2.4c-.3.9-.5,1.9-.5,2.9h0c0,1.1.2,2.1.5,3,.3.9.8,1.7,1.4,2.4.6.7,1.3,1.2,2.1,1.6s1.7.6,2.7.6,1.4,0,2-.2,1.1-.4,1.6-.7c.5-.3,1-.7,1.4-1.1s.9-.9,1.3-1.4l5.9,4.2c-.7.9-1.4,1.8-2.2,2.5-.8.8-1.7,1.4-2.7,2s-2.1,1-3.4,1.3c-1.2.3-2.6.5-4.2.5Z"/>
    <path class="st0" d="M241.9,426.8c-2.2,0-4.2-.4-6-1.1-1.8-.8-3.4-1.8-4.8-3.1-1.3-1.3-2.4-2.9-3.2-4.6-.8-1.8-1.1-3.7-1.1-5.7h0c0-2.1.4-4,1.1-5.8.8-1.8,1.8-3.3,3.2-4.7,1.4-1.3,3-2.4,4.8-3.1,1.8-.8,3.9-1.1,6-1.1s4.2.4,6,1.1c1.8.8,3.4,1.8,4.8,3.1,1.3,1.3,2.4,2.8,3.2,4.6.8,1.8,1.1,3.7,1.1,5.7h0c0,2.1-.4,4-1.1,5.8-.8,1.8-1.8,3.3-3.2,4.7-1.4,1.3-3,2.4-4.8,3.1-1.8.8-3.9,1.1-6,1.1ZM242,419.8c1.1,0,2.1-.2,2.9-.6s1.6-.9,2.3-1.6,1.1-1.5,1.5-2.4c.3-.9.5-1.9.5-2.9h0c0-1.1-.2-2.1-.5-3-.3-.9-.8-1.7-1.5-2.4s-1.4-1.3-2.3-1.7-1.9-.6-2.9-.6-2,.2-2.9.6-1.6.9-2.3,1.6c-.6.7-1.1,1.5-1.4,2.4-.3.9-.5,1.9-.5,2.9h0c0,1.1.2,2.1.5,3,.3.9.8,1.7,1.5,2.4s1.4,1.3,2.3,1.7,1.9.6,2.9.6Z"/>
    <path class="st0" d="M277.8,426.8c-2,0-3.8-.3-5.4-.8-1.6-.5-3-1.3-4.1-2.3-1.1-1.1-2-2.4-2.6-4-.6-1.6-.9-3.5-.9-5.7v-15.8h7.9v15.6c0,2,.5,3.5,1.4,4.5.9,1,2.2,1.5,3.7,1.5s2.8-.5,3.7-1.4c.9-.9,1.4-2.4,1.4-4.4v-15.8h7.9v15.6c0,2.3-.3,4.2-.9,5.9-.6,1.6-1.5,3-2.6,4.1-1.1,1.1-2.5,1.8-4.1,2.3-1.6.5-3.4.8-5.4.8Z"/>
    <path class="st0" d="M299.6,398.2h7.3l11.6,14.8v-14.8h7.7v28.1h-6.8l-12-15.4v15.4h-7.7v-28.1Z"/>
    <path class="st0" d="M346.1,426.7c-2.5,0-4.9-.4-7.2-1.2-2.3-.8-4.3-2-6-3.5l4.3-5.2c2.8,2.2,5.8,3.4,9.1,3.4s1.8-.2,2.4-.5c.5-.3.8-.8.8-1.4h0c0-.4,0-.6-.2-.9-.1-.2-.4-.4-.7-.7-.4-.2-.8-.4-1.4-.6-.6-.2-1.4-.4-2.3-.6-1.5-.3-2.9-.7-4.2-1.1s-2.4-.9-3.4-1.6c-1-.7-1.7-1.5-2.2-2.4-.5-1-.8-2.2-.8-3.6h0c0-1.4.2-2.6.7-3.7.5-1.1,1.2-2,2.2-2.8,1-.8,2.1-1.4,3.4-1.9,1.3-.4,2.8-.7,4.5-.7,2.4,0,4.6.3,6.4,1,1.9.6,3.6,1.6,5.1,2.8l-3.9,5.5c-1.3-.9-2.6-1.6-4-2.1-1.4-.5-2.7-.7-3.9-.7s-1.6.2-2.1.5c-.5.3-.7.8-.7,1.3h0c0,.4,0,.7.2.9.1.2.4.5.8.7.4.2.9.4,1.5.6.6.2,1.4.4,2.4.6,1.6.3,3.1.8,4.4,1.2,1.3.5,2.4,1,3.3,1.7.9.7,1.6,1.5,2.1,2.4.5.9.7,2.1.7,3.4h0c0,1.5-.3,2.8-.8,3.9-.5,1.1-1.3,2.1-2.3,2.9-1,.8-2.2,1.4-3.6,1.8-1.4.4-2.9.6-4.7.6Z"/>
    <path class="st0" d="M365.3,398.2h22.6v6.6h-14.9v4.3h13.5v6.1h-13.5v4.5h15.1v6.6h-22.8v-28.1Z"/>
    <path class="st0" d="M396.1,398.2h7.8v21.3h13.6v6.8h-21.4v-28.1Z"/>
    <path class="st0" d="M424.9,398.2h7.8v28.1h-7.8v-28.1Z"/>
    <path class="st0" d="M441.9,398.2h7.3l11.6,14.8v-14.8h7.7v28.1h-6.8l-12-15.4v15.4h-7.7v-28.1Z"/>
    <path class="st0" d="M491.8,426.8c-2.2,0-4.2-.4-6.1-1.1-1.9-.7-3.5-1.7-4.8-3-1.4-1.3-2.4-2.8-3.2-4.6-.8-1.8-1.2-3.7-1.2-5.9h0c0-2.1.4-4,1.1-5.8.8-1.8,1.8-3.3,3.1-4.7,1.3-1.3,2.9-2.4,4.8-3.1,1.9-.7,3.9-1.1,6-1.1s4.6.4,6.4,1.1,3.5,1.7,5,3l-4.6,5.5c-1-.9-2.1-1.5-3.1-2-1.1-.5-2.3-.7-3.7-.7s-2,.2-2.8.6c-.9.4-1.6.9-2.3,1.6s-1.1,1.5-1.5,2.4-.6,1.9-.6,3h0c0,1.2.2,2.3.6,3.2.4,1,.9,1.8,1.6,2.5.7.7,1.5,1.2,2.4,1.6.9.4,2,.6,3.1.6,1.8,0,3.3-.4,4.5-1.2v-3.4h-5.5v-5.7h12.9v12.6c-1.5,1.2-3.3,2.3-5.3,3.1-2,.8-4.3,1.2-6.9,1.2Z"/>
  </g>
</svg>